<svg xmlns="http://www.w3.org/2000/svg" viewBox="0 0 512 512" fill="#61dafb">
  <path d="M256 8C119.033 8 8 119.033 8 256s111.033 248 248 248 248-111.033 248-248S392.967 8 256 8zm0 34c124.617 0 226 101.383 226 226s-101.383 226-226 226S30 392.617 30 268 131.383 42 256 42zm2 36c-8.837 0-16 7.163-16 16s7.163 16 16 16 16-7.163 16-16-7.163-16-16-16zm-36.524 12.038c-25.618 0-46.524 20.905-46.524 46.524s20.905 46.524 46.524 46.524 46.524-20.905 46.524-46.524-20.906-46.524-46.524-46.524zM256 136c-6.627 0-12 5.373-12 12s5.373 12 12 12 12-5.373 12-12-5.373-12-12-12z"/>
</svg>
