<?xml version="1.0" ?><svg xmlns="http://www.w3.org/2000/svg" xmlns:xlink="http://www.w3.org/1999/xlink" version="1.1" viewBox="0 0 720 720" style="enable-background:new 0 0 720 720;" xml:space="preserve"><style type="text/css">
	.st0{fill:#FFFFFF;}
	.st1{opacity:0.41;fill:#D1D0CF;}
	.st2{fill:#77450E;}
	.st3{fill:#A36B34;}
	.st4{fill:#EEEEEE;}
	.st5{fill:#CFCFCF;}
	.st6{fill:#9D9B9C;}
	.st7{fill:#BCBCBC;}
	.st8{fill:#376A3A;}
	.st9{fill:#4D903C;}
	.st10{opacity:0.36;fill:#113312;}
	.st11{fill:#CEE570;}
	.st12{opacity:0.35;fill:#9DAD3E;}
	.st13{opacity:0.43;fill:#6C936D;}
	.st14{fill:#E5E5E5;}
	.st15{fill:#D2CECA;}
	.st16{fill:#CE9E72;}
	.st17{fill:#E5504F;}
	.st18{fill:#B54338;}
	.st19{fill:#D8A14A;}
	.st20{fill:#FAFFFD;}
	.st21{fill:#6B2C00;}
	.st22{fill:#572300;}
	.st23{fill:#823C0C;}
</style><g id="Layer_5"><rect class="st0" width="720" height="720"/><ellipse class="st1" cx="372" cy="606.3" rx="176" ry="48.7"/></g><g id="Layer_2"><g><g><g><path class="st2" d="M361.5,292.2c-23.7,0-40.1-19-40.8-19.9c-2.1-2.5-1.8-6.3,0.7-8.5c2.5-2.1,6.3-1.8,8.4,0.7      c0.2,0.2,15.5,17.7,35.4,15.4c21.8-2.5,35.8-10.8,35.9-10.9c2.8-1.7,6.5-0.8,8.2,2c1.7,2.8,0.8,6.5-2,8.2      c-0.7,0.4-16.2,9.7-40.8,12.6C364.9,292.1,363.1,292.2,361.5,292.2z"/></g><path class="st3" d="M321.4,268.8c2.5-2.1,6.3-1.8,8.4,0.7c0.2,0.2,15.5,17.7,35.4,15.4c21.8-2.5,35.8-10.8,35.9-10.9     c2.8-1.7,6.5-0.8,8.2,2c0.1,0.2,0.2,0.4,0.3,0.6c0.8-1.7,0.7-3.8-0.3-5.6c-1.7-2.8-5.4-3.7-8.2-2c-0.1,0.1-14.2,8.4-35.9,10.9     c-19.9,2.3-35.2-15.2-35.4-15.4c-2.1-2.5-5.9-2.8-8.4-0.7c-2.1,1.8-2.7,4.7-1.6,7.1C320.1,270.1,320.7,269.4,321.4,268.8z"/></g><g><path class="st4" d="M528.9,242.8c-0.8,1.3-1.9,2.7-3.5,4.1c-6.3,5.8-34.9,7.3-35.5,7.3h0c1.8,4.9,1.3,8.9,0.1,12     c-0.6,1.6-1.4,2.9-2.2,3.9c-0.2,0.3-0.4,0.6-0.7,0.8c-1.3,1.5-2.4,2.3-2.4,2.3c0,0.1,0.1,0.2,0.1,0.3c1,3.7,0.6,8.6-2,13.2     c-0.1,0.1-0.1,0.2-0.2,0.3c-1.6,2.8-4.1,5.4-7.6,7.6c-0.7,0.4-1.4,0.8-2.1,1.2c-4.5,2.3-10.1,3.3-15.8,3.7c-0.3,0-0.5,0-0.8,0     c-8.7,0.5-17.2-0.6-20.8-1.4c-2.4-0.6-4.7-1.6-6.7-2.6c-0.4-0.2-0.8-0.4-1.1-0.6c-2.3-1.3-3.8-2.4-3.8-2.4     c-0.2,0.1-0.3,0.3-0.5,0.5c0,0-0.1,0.1-0.1,0.2c-0.4,0.4-0.8,0.9-1.3,1.3c-0.1,0.1-0.2,0.1-0.3,0.2c-0.1,0.1-0.2,0.1-0.3,0.2     c-0.1,0.1-0.3,0.2-0.4,0.2c-0.1,0.1-0.2,0.1-0.4,0.2c0,0,0,0,0,0c-0.1,0-0.2,0.1-0.3,0.1c0,0-0.1,0-0.1,0c-0.2,0-0.4,0.1-0.7,0.1     c-0.7,0-1.6-0.1-2.6-0.4c-1.1-0.4-2.4-1-3.9-2c-0.5-0.3-1-0.7-1.6-1.1c-0.8-0.6-1.7-1.3-2.7-2.2c-4.7-4.1-7.5-9.3-9-14.5     c-2.1-7.6-1.5-14.9-0.3-18c0.1-0.2,0.1-0.3,0.2-0.5c0.1-0.2,0.2-0.4,0.3-0.5c0,0,0,0,0-0.1c0.1-0.2,0.2-0.3,0.4-0.5     c0.1-0.2,0.3-0.3,0.5-0.5c0.3-0.3,0.7-0.6,1.1-0.8h0c0.2-0.1,0.4-0.2,0.6-0.3c0.8-0.4,1.7-0.8,2.5-1c0.2-0.1,0.4-0.1,0.7-0.2     c0.4-0.1,0.7-0.2,1.1-0.2c2.1-0.4,3.7-0.4,3.7-0.4c0.1-0.6,0.4-1.3,0.8-2.1c0.1-0.2,0.1-0.3,0.2-0.5c0.2-0.3,0.4-0.7,0.6-1.1     c0.1-0.2,0.2-0.4,0.3-0.5c0.2-0.3,0.4-0.7,0.6-1.1c0.1-0.2,0.2-0.4,0.4-0.6c0.4-0.6,0.8-1.3,1.2-1.9c0.3-0.4,0.5-0.8,0.8-1.2     c0.2-0.3,0.3-0.5,0.5-0.8c0.6-0.9,1.2-1.8,1.8-2.7c1.5-2.1,2.9-4.1,4.1-5.8c0.2-0.3,0.4-0.6,0.6-0.8c3.7-5.5,2-13.7-1-19.3     c-2.2-4.2-2-8.9,1.2-11.8c1.1-1,2.6-1.9,4.5-2.3c7.2-1.8,17.7,6.7,22,14.8c4.3,8.2-1.7,20.7-1.7,20.7c10.7-3.3,50.2-6.2,64.3-6.8     c14.2-0.7,17.5,2.7,18.3,5.3C530.6,235.6,531.3,238.8,528.9,242.8z"/><path class="st5" d="M528.9,242.8c-0.8,1.3-1.9,2.7-3.5,4.1c-6.3,5.8-34.9,7.3-35.5,7.3h0c-0.1-0.1-0.2-0.1-0.3-0.2     c-2.8-1.7-14.7-1.2-18.5-1.2c-3.8,0-10.2,2.5-10.3,6.7c-0.2,4.2,10.8,1.5,16.7,0.8c4.6-0.5,10.3,3.8,12.6,5.8     c-0.8,2-1.9,3.6-2.9,4.8c-2.2-1.1-5.8-2.8-10.1-4.4c-7.2-2.7-19.8,3.2-22,2.3c-2.2-0.8-6.5-6-2.2-12.5c4.3-6.5,21.5-7.8,30.2-6.5     c8.7,1.3,17.5,0.2,27.3-0.2C517.2,249.5,524.8,245.4,528.9,242.8z"/><path class="st5" d="M450.2,234.3l0.5,0.6c-2.5,2.3-2.7,19.2-2.7,19.2c-1-2.3-8.3-8.7-5.8-10.5c1.9-1.4,5.1-6.5,6.6-8.9     L450.2,234.3z"/><path class="st5" d="M482.9,286.8c-0.1,0.1-0.1,0.2-0.2,0.3c-1.6,2.8-4.1,5.4-7.6,7.6c-0.7,0.4-1.4,0.8-2.1,1.2     c-4.5,2.3-10.1,3.3-15.8,3.7c-0.3,0-0.5,0-0.8,0c-8.7,0.5-17.2-0.6-20.8-1.4c-2.4-0.6-4.7-1.6-6.7-2.6c-0.4-0.2-0.8-0.4-1.1-0.6     c-2.3-1.3-3.8-2.4-3.8-2.4c-0.2,0.1-0.3,0.3-0.5,0.5c0,0-0.1,0.1-0.1,0.2c-0.4,0.4-0.8,0.9-1.3,1.3c-0.1,0.1-0.2,0.1-0.3,0.2     c-0.1,0.1-0.2,0.1-0.3,0.2c-0.1,0.1-0.3,0.2-0.4,0.2c-0.1,0.1-0.2,0.1-0.4,0.2c0,0,0,0,0,0c-0.1,0-0.2,0.1-0.3,0.1     c0,0-0.1,0-0.1,0c-0.9,0.2-1.9,0.1-3.3-0.3c-1.1-0.4-2.4-1-3.9-2c-0.5-0.3-1-0.7-1.6-1.1c-0.8-0.6-1.7-1.3-2.7-2.2     c-4.7-4.1-7.5-9.3-9-14.5c3,0.9,8.1,1.7,8.3-3.5c0.2-4.6,0.6-12.2-2.3-14.9c-1.3-1.2-4.1,0.1-6.3,0.4c0.1-0.2,0.1-0.3,0.2-0.5     c0.1-0.2,0.2-0.4,0.3-0.5c0,0,0,0,0-0.1c0.1-0.2,0.2-0.3,0.4-0.5c0.1-0.2,0.3-0.3,0.5-0.5c0.3-0.3,0.7-0.6,1.1-0.8h0     c0.2-0.1,0.4-0.2,0.6-0.3c0.8-0.4,1.7-0.8,2.5-1c0.2-0.1,0.4-0.1,0.7-0.2c0.4-0.1,0.7-0.2,1.1-0.2c2.1-0.4,3.7-0.4,3.7-0.4     c0.1-0.6,0.4-1.3,0.8-2.1c0.1-0.2,0.1-0.3,0.2-0.5c0.2-0.3,0.4-0.7,0.6-1.1c0.1-0.2,0.2-0.4,0.3-0.5c0.2-0.3,0.4-0.7,0.6-1.1     c0.1-0.2,0.2-0.4,0.4-0.6c0.4-0.6,0.8-1.3,1.2-1.9c0.2-0.4,0.5-0.8,0.8-1.2c0.2-0.3,0.3-0.5,0.5-0.8c0.6-0.9,1.2-1.8,1.8-2.7     c1.5-2.1,2.9-4.1,4.1-5.8c0.2-0.3,0.4-0.6,0.6-0.8c3.7-5.5,2-13.7-1-19.3c-2.2-4.2-2-8.9,1.2-11.8c0,2.5,0.3,5.7,1.5,8.2     c2.2,4.7,8.7,12.2,4.2,20.8c-4.5,8.7-13,20.2-12.7,29.5c0.3,9.3,4.5,15.7,7.3,17.5c0,0,4,20.3,28.2,15.8c0,0-12.5-15.5-15.8-17.2     c0,0,9.5-2.2,15.3-16.5c0,0-0.8,9.7,1.7,12.3l-1.3,2.2c0,0-3.6,5.5-4.1,9c-0.6,3.9,1.9,2,8.6,0.9     C461.1,283.4,476.6,277,482.9,286.8z"/><path class="st6" d="M423.8,292.7c-0.5,0.4-1,1.1-1.7,1.7c-3.1-2.7-12.2-11.8-13.1-26.3c-0.6-9.7-0.6-13.9-0.4-15.8     c1.1-0.1,1.9-0.1,1.9-0.1c0-0.2,0.1-0.5,0.2-0.7l0.2,1c0,0-2.4,26.8,12.9,40L423.8,292.7z"/><path class="st6" d="M459.5,267.7c-3.5,0.9-3.3,1.5-5.8,0c-1.6-0.9-2.4-3.9-2.9-6c0-0.1,0-0.1,0-0.2c0-0.1,0-0.1-0.1-0.2     c-0.2-1.1-0.3-1.8-0.3-1.8c-0.5,0.8-0.8,1.6-1.1,2.4c-1.4,1.6-2.1,4.4-3,6.2c-1.6,3.1-4,5.7-7.2,7.2c-0.1,0,0,0.2,0.1,0.2     c2.9-0.9,5.4-2.3,7.2-4.7c0.8-1,1.8-2.4,2.7-4c0.5,3.5,2.2,6.4,2.2,6.4s-4.6,5.8-5.1,11.6c-0.5,5.9,4.9,10.4,4.9,10.4     c-6,4-16.5,2.3-20,1.6c1.4,0.6,2.9,1.2,4.5,1.6c3.6,0.9,12.1,2,20.8,1.4c0.3,0,0.5,0,0.8,0c-2-1.7-3.3-4.2-2.9-5     c0.5-1,6,1.5,6,1.5l1.3-3.2c-1.6-0.5-7.9,0.5-10-0.5c-2.1-1-3.5-4.3-4.1-6.3c-0.6-2,1.5-8.9,4.4-11.4c2.9-2.5,14.4-3.9,19.4-4.5     c4.5-0.6,12.3,2.6,13.8,3.3c0-0.1-0.1-0.2-0.1-0.3c0,0,1.1-0.8,2.4-2.3c0.2-0.3,0.4-0.5,0.7-0.8     C479.1,263,462.7,266.9,459.5,267.7z"/></g></g><g><g><g><path class="st2" d="M399,437c0-0.1,0.1-0.2,0.1-0.2c1.3-3.1,4.8-4.5,7.9-3.2l72.5,30.7c3.1,1.3,4.5,4.8,3.2,7.9      c-1.3,3.1-4.8,4.5-7.9,3.2l-72.5-30.7C399.3,443.4,397.9,440,399,437z"/></g><path class="st3" d="M482.6,472.2c0.2-0.6,0.4-1.2,0.4-1.8c-1.7,1.3-4,1.7-6.1,0.8l-72.5-30.7c-2.5-1.1-3.9-3.6-3.6-6.1     c-0.8,0.6-1.4,1.4-1.8,2.4c0,0.1-0.1,0.2-0.1,0.2c-1.1,3,0.3,6.4,3.3,7.6l72.5,30.7C477.8,476.7,481.3,475.2,482.6,472.2z"/></g><g><path class="st4" d="M570.2,420.5c-1.2,4.5-2.7,8.7-4.3,12.6c-9.2,22-24.1,33.8-31.7,38.1c-9,5-28,17-31.5,21.7     c-3.5,4.7-6.5,3.8-6.5,3.8c-11.1,1.1-19.9-11.4-22.2-15.1c-0.4-0.7-0.6-1-0.6-1c-0.2,0-0.5,0.1-0.7,0.1c-8.9,1.4-10.8-1.4-12-5.8     c-0.3-1.2-0.4-2.6-0.3-4.1c0.2-3.2,1.2-7.1,2.8-11.8c0.3-1,0.7-2,1.1-3.1c3-8.5,8.2-11,13.2-11c4.5,0,6,5.8,6.3,7.1     c0,0.2,0.1,0.2,0.1,0.2c0.3,0,0.6-0.1,1-0.1c0.1,0,0.2,0,0.3-0.1c2.3-0.4,5.5-1.2,8.6-3.2c3.9-2.5,7.6-6.9,9.1-14.4     c0.7-3.4,1.5-6.3,2.3-8.8c0.8-2.2,1.6-4,2.4-5.5c2.1-3.8,3.9-5.3,3.9-5.3c20.8-22.8,54.2,1.5,54.2,1.5c2.4-0.9,3.9,2.3,4.5,3.6v0     C570.1,420.3,570.2,420.5,570.2,420.5z"/><path class="st5" d="M484.7,452c-0.4,0.1-0.7,0.1-1,0.1c0,0,0-0.1-0.1-0.2l-1.1,1.9l-2.3,5.4c0,0,0,0,0,0l-2.9,6.9     c0,0-0.2,0-0.5-0.1c-2.1-0.3-9.8-1.7-13.7-7.2c-1.6,4.7-2.6,8.6-2.8,11.8c-0.1,1.5,0,2.8,0.3,4.1c1.1,4.4,3.1,7.2,12,5.8l1.3,0.9     c2.3,3.7,11.1,16.3,22.2,15.1c0,0,3,0.8,6.5-3.8c3.5-4.7,22.5-16.7,31.5-21.7c7.7-4.2,22.5-16.1,31.7-38.1     c1.6-3.9,3.1-8.1,4.3-12.6c0,0-0.1-0.2-0.2-0.5c-3.4,6.4-12.9,22.8-23.5,30.4c-13.3,9.5-33.2,17-36.7,21.7s-8.7,13.5-15.2,11.2     c-6.5-2.3-13.7-8.2-14.8-11.5l0.8-6.9v0l0.1-0.4l0.1-0.1l2.3-3.2c0,0,20.3-6.8,22.3-13.2c1.8-5.5,2.9-19.8,2.1-27.7     c-0.8,1.5-1.6,3.3-2.4,5.5c-0.9,2.4-1.7,5.3-2.3,8.8c-1.4,7.6-5.2,11.9-9.1,14.4c-3.1,2-6.3,2.9-8.6,3.2L484.7,452z"/><path class="st7" d="M474,481.5c2.3,3.7,11.1,16.3,22.2,15.1c0,0,3,0.8,6.5-3.8c3.5-4.7,22.5-16.7,31.5-21.7     c7.7-4.2,22.5-16.1,31.7-38.1c-4,6-10.5,14.9-17,19.7c-10.5,7.8-26.3,18.8-33.7,24.2c-7.3,5.3-14.2,14.8-18.7,14     s-17.8-9.2-19.2-12c-0.2-0.5-0.5-0.9-0.7-1.4c-1.1-1.9-2-2.8-2-2.8s-0.3-0.1-0.9-0.2c-2.5-0.5-9.7-2-13.4-3.9     c-0.1,1.5,0,2.8,0.3,4.1c1.1,4.4,3.1,7.2,12,5.8L474,481.5z"/><path class="st7" d="M503.4,446.8c-2.2,2.1-7.3,3.5-9.8,1.9c3.9-2.5,7.6-6.9,9.1-14.4c0.7-3.4,1.5-6.3,2.3-8.8     C505.3,432.3,505.4,444.9,503.4,446.8z"/><path class="st6" d="M484.7,452c-1.5,2.1-3,4.6-4.4,7.2c0,0,0,0,0,0c-1.2,2.3-2.4,4.6-3.4,6.8c-0.7,1.6-1.3,3.1-1.8,4.4     c-0.5,1.4-0.9,2.8-1.3,4.2c-0.6,2.5-1,4.7-1.1,6l1.3,0.9c1-0.7,1.9-2.1,2.7-3.9c1.7-3.6,3.1-8.8,4-12.9v0l0.1-0.5     c0.6-2.8,1-4.9,1.1-5.6c0.2-1.4,1.9-4.6,3.2-6.7L484.7,452z"/></g></g><g><path class="st8" d="M412.3,486.7c-3.4,2.3-7.2,4.4-11.4,6.3c-12.5,5.8-28.4,9.8-48.2,11.5c-3.7,0.3-7.5,0.6-11.5,0.7    c-2,0.1-4,0.1-6.1,0.2c-190.3,3.6-192.9-381.7-192.9-381.7c-1.8-25.5,3.9-42.5,13.1-52.8c2.1-2.4,4.5-4.4,7-6.1    c8.8-6,19.4-7.8,29.8-6.4c3.1,0.4,6.2,1.1,9.2,2.1c12.6,4,24,12.5,30,23.5c19.3,35.5,39.8,131.9,127.2,194.7    C402.6,310.4,485.5,438.2,412.3,486.7z"/><path class="st9" d="M166.6,73c-0.1,0.1-1.2,3.8-2,6.5c0.3,1.8,0.6,3.7,0.9,5.6l2.1,3.6l-1.1,2.8c0.1,0.6,0.2,1.2,0.3,1.8l2.4,1.6    l-1.7,2.7c0.1,0.7,0.2,1.4,0.4,2.1l6.3,9.4l-3.3,6.4c0.2,1,0.4,1.9,0.6,2.9l6.6,13.4l-2.5,6.6c0.2,1.1,0.5,2.2,0.7,3.3l3.5,2.5    l-2.6,1.7c0.1,0.4,0.2,0.9,0.3,1.3l2.3,2.5l-1.3,1.8l3.6,3.3l-0.2,10.9c0.5,2.1,1,4.3,1.6,6.4l4.9,8.8l-2.4,1.1    c0.2,0.7,0.4,1.4,0.6,2.1l2.3,2.5l-0.6,4c0.5,1.9,1,3.7,1.5,5.6l5.8,11.2l-1.8,3c0.7,2.3,1.3,4.6,2,6.9l2.5,4.7l-0.4,2.2    c0.6,1.8,1.1,3.6,1.7,5.4l4.2,9.4l-0.5,2.3c0.3,1,0.7,2.1,1,3.1l5.3,8.7l-1.4,2.8c0.4,1.3,0.9,2.7,1.4,4l7,12.9l-0.9,4.1    c0.5,1.5,1.1,2.9,1.6,4.4l4.4,7.7l-0.2,3.4c0.2,0.5,0.4,1,0.6,1.5l3,1.1l0.1,6.6c0.4,0.9,0.8,1.9,1.1,2.8l3.7,3.7l-0.9,3    c0.3,0.7,0.6,1.4,0.9,2l6.5,9.7l-0.8,3.6l1.8,4l4.2,6.5l-0.6,1.4c0.5,1.1,1,2.2,1.5,3.3l6.6,5.8l-1.4,5.3c0.4,0.9,0.9,1.8,1.3,2.7    l3.2,3l-0.8,1.8c0.2,0.3,0.3,0.7,0.5,1l3.1,0.7l-1,3.5c0.6,1.1,1.1,2.2,1.7,3.4l6.1,5l-1.2,4.3c0.5,1,1,1.9,1.5,2.9l4.9,4.9    l-1.2,1.8c0.2,0.4,0.4,0.7,0.6,1.1l8.8,7.3l-3.1,2.7c0.2,0.4,0.5,0.8,0.7,1.2l3.3,2.1l-0.8,2.3c1.3,2.3,2.7,4.5,4.1,6.8l8.1,10.6    l-0.6,1.4c0.8,1.3,1.7,2.6,2.5,3.9l9.7,10.3l-1.2,2.3c0,0,0,0,0,0l2.7-0.1l-1.7,1.6c0.3,0.5,0.7,1,1,1.5l5.8,4.1l-0.5,3.3    c0.4,0.6,0.9,1.2,1.3,1.8l5.2,1.5l6.9,14.3c1.3,1.6,2.5,3.2,3.8,4.8l6.4,4l1.7,5.7c0.7,0.9,1.5,1.7,2.2,2.6l4.6,1.3l-1.1,2.6    c0.4,0.4,0.8,0.9,1.2,1.3l7.1,4.2l1.4,5c1,1.1,2,2.1,3,3.1l4,0.2l-0.1,2c-3.7,0.3-7.5,0.6-11.5,0.7l-0.1-0.9    c-0.7-0.8-1.4-1.5-2.2-2.3l-6.2-2.1l1.1-3.4c-1.1-1.2-2.2-2.4-3.3-3.7l-5-2.8l-3.4-7c-1.1-1.3-2.2-2.6-3.3-3.9l-1.5,0.3l-0.2-2.3    c-0.7-0.9-1.4-1.7-2.1-2.6l-12.4-11.4l0.3-4.2c-1.7-2.3-3.3-4.5-5-6.8l-3-2.3l-0.3-2.2c-1.5-2.1-2.9-4.2-4.4-6.3l-6-6.3l0.2-2.3    c-0.6-1-1.3-1.9-1.9-2.9l-5,1l-3.9-15.1c-0.9-1.4-1.7-2.8-2.6-4.2l-6.9-6.6l1.5-2.7c-0.7-1.2-1.3-2.3-2-3.5l-5.3-7l0.5-1.6    c-0.3-0.6-0.7-1.2-1-1.9c-0.4-0.7-0.7-1.4-1.1-2.1l-10.6-11.2l2.6-3.8c-0.5-1-1-2.1-1.6-3.1l-10.3-11.3l2.6-4.1    c-0.5-1.1-1.1-2.2-1.6-3.3l-8.7-8l2.5-5.3c-0.2-0.5-0.5-1-0.7-1.5l-1.3-0.6l0.1-2.1l-1-2.2l-4.2-4.9l-0.8-6.8    c-0.4-0.9-0.7-1.7-1.1-2.6l-4.5-2.3l-1.5-12.3c-0.3-0.9-0.7-1.8-1-2.7l-4.1-3.6l1.9-2.2c-0.5-1.3-1-2.5-1.5-3.8l-4.7-7.1l0.7-3.7    c-0.6-1.5-1.1-3.1-1.7-4.6l-4.2-6.7l1.1-2.2c-0.2-0.6-0.4-1.3-0.7-1.9l-2.4-1l1.3-2.2c-0.3-0.9-0.6-1.8-0.9-2.7l-5.2-7.2l1.7-3.5    c-0.4-1.3-0.8-2.6-1.3-4l-3-4.1l-0.7-7.8c-0.4-1.2-0.8-2.5-1.1-3.7l-3.6-6.4l1.2-1.7c-0.4-1.3-0.7-2.5-1.1-3.8l-5.2-10.3l1.5-2.8    c-0.3-1.1-0.6-2.1-0.9-3.2l-3-4.8l0.9-3.3c-0.2-0.8-0.4-1.5-0.6-2.3l-3.9-7.4l1.4-2.2c-0.3-1.2-0.6-2.3-0.9-3.5l-5.5-10l2.4-2.8    c-0.2-0.8-0.4-1.6-0.6-2.4l-3.1-6.9l1-2.3c-0.3-1.3-0.6-2.6-0.8-3.8l-4.7-10.3l1.7-3.6c-0.1-0.3-0.1-0.7-0.2-1l-1.6-0.4l1-2.8    c-0.2-1.2-0.5-2.4-0.7-3.6l-3-5.2l1.8-0.9c-0.2-1.3-0.5-2.5-0.7-3.8l-6.5-10.5c0,0,2.7-1.8,4.1-2.7c-0.2-1.3-0.5-2.5-0.7-3.7    c-1.2-2.7-2.8-6-2.8-6l1.4-1.9c-0.2-1.3-0.4-2.7-0.6-4l-3.5-7.9l1.9-2.5c-0.1-0.9-0.3-1.9-0.4-2.8l-1-1.6c2.1-2.4,4.5-4.4,7-6.1    c0.1,0.8,0.2,1.6,0.4,2.4l1.5,0.8l-1.2,0.8c0.1,0.5,0.1,1,0.2,1.5C164.6,71.4,166.7,72.9,166.6,73z"/><path class="st9" d="M401.3,434.4c0.8,2.3,1.6,4.7,2.3,7l7.4,12.9l-2.6,5.8c0.2,1.3,0.5,2.5,0.7,3.8l4.9,9.7l-3.4,1.5    c0,0.3,0.1,0.7,0.1,1.1l4.5,3.8l-3.9,4.9l1.1,1.8c-3.4,2.3-7.2,4.4-11.4,6.3l2.3-3.2c0-2.2,0-4.3-0.1-6.5l-5.5-11l3.3-8.5    c-0.4-2.2-0.9-4.5-1.4-6.7l-3.7-5.9l1.5-2.6l0,0l-3.8-5.7l0.9-3.5c-0.6-1.8-1.3-3.7-1.9-5.5l-5.9-7.8l-0.2-7.2l-9.2-12.7l1.2-3.8    c-0.5-1-1.1-2-1.6-3l-4.7-1.3l2.4-3l-4.2-1.8l1.9-2.3c-0.7-1.3-1.4-2.5-2.2-3.8l-10.5-10.6l0.5-5.9c-0.8-1.3-1.6-2.6-2.4-3.9    l-11.3-9.5l3.1-3c-0.8-1.2-1.7-2.5-2.5-3.7l-9.8-7.6l-1.3-8.6c-0.7-1-1.4-2-2.1-3l-14.8-14.3l2.5-3c-0.6-0.8-1.2-1.7-1.8-2.5    l-11-8.1l3.2-2.7c-0.8-1.1-1.6-2.2-2.4-3.3l-13.7-10.5l2.1-5.3c-1.1-1.5-2.2-3.1-3.3-4.6l-6.8-5.1l1.3-2.5l-4-2.1l1.2-1.8    l-13.2-12.3l2.5-2.7c-0.4-0.6-0.8-1.2-1.3-1.8l-3-0.9l-13.4-24.1l-6.3-5.1l-0.2-5.9l-6.8-5.8l2-2.8l-6.2-6.7l0.7-3.9    c-1.4-2.7-2.7-5.5-4.1-8.2l-10.6-14.3l2.8-2.5c-0.6-1.4-1.2-2.8-1.8-4.1l-7.6-9.8l-0.2-9.2c-1.3-3.3-2.5-6.6-3.7-9.8L205,118.5    l0.8-12.7c-0.3-1-0.6-2-1-3l-3.1-1.5l1.1-5.1l-6.3-15l1.1-3.3l-6.5-14l2.1-3.4c-0.1-0.4-0.2-0.8-0.3-1.1l-0.7-1    c3.1,0.4,6.2,1.1,9.2,2.1c0.3,1.1,0.5,2.2,0.8,3.4l5.3,11.9L207,82c0,0,0,0,0,0l7.2,12.6l-2.2,4.6c0.7,2.4,1.5,4.8,2.3,7.2l6.5,10    l-1.6,4.6c0.5,1.4,1,2.9,1.5,4.3l6.6,4.9l-2.6,5.9c0.2,0.7,0.5,1.3,0.8,2l4.7,4.7l-0.8,5.2c0.7,1.8,1.5,3.6,2.2,5.4l8.4,11.2    l-1.8,4c0.9,2,1.8,4,2.8,6.1l4.7,4.9l-0.1,4.7c0.4,0.9,0.9,1.8,1.4,2.7l8.5,5l-1.8,7.8c0.6,1.1,1.2,2.3,1.9,3.4l6.6,5.5l-0.8,4.7    c0.7,1.1,1.3,2.3,2,3.4l4.9,2.5l-0.8,4.2c1.3,2,2.6,4.1,3.9,6.1l5.3,2.7l0.3,5.8c0.2,0.2,0.3,0.5,0.5,0.7c0.3,0.4,0.6,0.8,0.8,1.2    l2.7,0.5l0.7,4.5c0.4,0.6,0.9,1.2,1.3,1.9l2.7-0.3l-0.5,3.4c0.6,0.9,1.2,1.8,1.9,2.6l10.1,6.7l2,10.1c0.5,0.7,1.1,1.5,1.6,2.2    l4.3,0.2l-0.2,5.4c0.5,0.7,1.1,1.5,1.6,2.2l7.7,3.6l-0.7,6.1c1.1,1.5,2.2,3,3.3,4.5l8.7,7.9l-0.6,3.2c0.6,0.8,1.2,1.6,1.8,2.4    l4.9,2l-0.7,3.8c0.5,0.7,1,1.5,1.6,2.2l5.4-0.5l-1.7,5.6c0.7,1,1.5,2.1,2.2,3.1l12,9l-2.5,4.6c0.6,0.8,1.1,1.6,1.7,2.4l5.2,2.9    l-0.9,3.4c0.7,1.1,1.4,2.1,2.1,3.1l8.1,2.1l1.9,13.3c1.1,1.8,2.3,3.6,3.4,5.4l9.9,8.4l-3.2,2.8c0.2,0.3,0.4,0.7,0.6,1l6.6,2.8    l-1.9,5.6c0.5,0.8,0.9,1.7,1.4,2.5l6.4,5l-1,5.3c0.7,1.5,1.5,2.9,2.2,4.4l11.5,14.8l-3.5,3.5c0.2,0.6,0.5,1.1,0.7,1.7l4.1,2.1    L401.3,434.4z"/><path class="st10" d="M434.7,461.6c-4.7,9.7-11.9,18.2-22.4,25.1c-3.4,2.3-7.2,4.4-11.4,6.3c-12.5,5.8-28.4,9.8-48.2,11.5    c-3.7,0.3-7.5,0.6-11.5,0.7c-2,0.1-4,0.1-6.1,0.2c-190.3,3.6-192.9-381.7-192.9-381.7c-1.8-25.5,3.9-42.5,13.1-52.8    c2.1-2.4,4.5-4.4,7-6.1c5.4-3.7,11.4-5.7,17.7-6.5c-2.6,9-3.7,20-2.8,33.4c0,0,2.6,385.3,192.9,381.7c2.1,0,4.1-0.1,6.1-0.2    c4-0.2,7.8-0.4,11.5-0.7C406.9,470.8,422.4,467,434.7,461.6z"/><path class="st11" d="M160.5,53.5c0,0-11,15.5-0.4,16.2c10.6,0.8,23.1-7,31-5.8c7.9,1.2,9.1-15.7,5.2-18.7    C192.4,42.2,164.8,45.6,160.5,53.5z"/><path class="st12" d="M174.5,46.1c-2,1.2-3.5,2.5-4.3,4c0,0-12,16.9-0.5,17.7c1,0.1,2,0.1,3,0c-4.2,1.2-8.6,2.2-12.6,1.9    c-10.6-0.8,0.4-16.2,0.4-16.2C162.3,50.2,168.1,47.7,174.5,46.1z"/><path class="st12" d="M181.3,60.9c1.5-2,3.7-6,3.1-11.6c-0.2-1.6,1-3,2.6-3.1l0,0c1.5-0.1,2.8,1,2.9,2.5c0.2,4.2,0.6,11.8,0,12.4    c-0.6,0.6-4.4,2.1-7.2,2.3C181.3,63.4,180.5,62,181.3,60.9z"/><path class="st13" d="M194.6,91.2c0,0,3.6,65.6,56.7,121.1C304.5,267.8,203,32.8,194.6,91.2z"/><path class="st13" d="M284.8,238.9c2.4,5.4,0,11.8-5.4,14.2c-5.4,2.4-11.8,0-14.2-5.4c-2.4-5.4,0-11.8,5.4-14.2    C276,231,282.4,233.5,284.8,238.9z"/></g><g><g><g><path class="st2" d="M289.7,570.4c-0.1,0-0.2,0-0.3,0c-3.3-0.1-5.9-2.9-5.7-6.2l3.3-78.7c0.1-3.3,3-5.9,6.2-5.7      c3.3,0.1,5.9,2.9,5.7,6.2l-3.3,78.7C295.6,567.8,292.9,570.4,289.7,570.4z"/></g><path class="st3" d="M293.3,479.7c-0.6,0-1.2,0-1.8,0.2c1.8,1.1,3,3.1,2.9,5.4l-3.3,78.7c-0.1,2.7-2,4.9-4.4,5.5     c0.8,0.5,1.8,0.8,2.9,0.9c0.1,0,0.2,0,0.3,0c3.2,0,5.9-2.5,6-5.7l3.3-78.7C299.2,482.6,296.6,479.8,293.3,479.7z"/></g><g><path class="st4" d="M325.8,598.9c-1.6,10.8-12.1,18.4-20.4,22c-6.6,2.8-13.9,5.2-22.5,4.7c-5.3-0.3-11.1-1.7-17.5-4.7     c-16.8-8-19.5-26.5-17.5-34.3c2-7.8,18.8-26.5,18.8-26.5c-2.3-2.3-4.7-4.7,0.3-12.2c1.4-2.1,3.4-3.7,5.5-4.9     c3.6-2.1,7.8-3.2,10.4-3.7c1.6-0.3,2.5-0.4,2.5-0.4c9.3-0.5,15.6,1.8,19.3,4.9c1.7,1.3,2.8,2.8,3.4,4.3c1.7,3.9-1.9,6.7-3,7.5     c-0.2,0.1-0.3,0.2-0.3,0.2l0.7,1.5c0,0,14,16,19.3,32C326.1,592.7,326.3,595.9,325.8,598.9z"/><path class="st5" d="M325.8,598.9c-1.6,10.8-12.1,18.4-20.4,22c-6.6,2.8-13.9,5.2-22.5,4.7c-5.3-0.3-11.1-1.7-17.5-4.7     c-16.8-8-19.5-26.5-17.5-34.3c2-7.8,18.8-26.5,18.8-26.5c-2.3-2.3-4.7-4.7,0.3-12.2c1.4-2.1,3.4-3.7,5.5-4.9     c3.6-2.1,7.8-3.2,10.4-3.7c0.3,1.4,0.5,3.3,0.6,5.5c0.5-0.1,1.2-0.3,2-0.6c3.4-1.5,13.9,2.4,16.6,2.8c1.5,0.2,2.2-1.6,2.6-3.2     c1.7,1.3,2.8,2.8,3.4,4.3c1.7,3.9-1.9,6.7-3,7.5c-0.9-0.6-1.5-1-1.5-1l-3.9-3.2l-7.5-2.2l-8.3,0.7c0.2,2.1,0.5,4.2,1.1,6.2     c2,7.2-2.8,14.5-3.8,21s-7.7,20-7.7,20c-2,11.3,0.1,18.5,18.8,21C304.9,619.5,319.7,605.5,325.8,598.9z"/><path class="st7" d="M282.9,625.6c-5.3-0.3-11.1-1.7-17.5-4.7c-16.8-8-19.5-26.5-17.5-34.3c2-7.8,18.8-26.5,18.8-26.5     c-2.3-2.3-4.7-4.7,0.3-12.2c1.4-2.1,3.4-3.7,5.5-4.9c-0.9,5.1,0.5,13.4,0.5,13.4c-10.3,11.5-7,31.8-7,31.8     c-6.2,6.8-7.3,14-2.3,23.3C267.3,618.1,277.2,623.2,282.9,625.6z"/><path class="st6" d="M257.9,593.7c0,0,26.7-23.3,61.3-4C319.2,589.7,285.6,560.2,257.9,593.7z"/><path class="st6" d="M268.6,557.7c0,0,14.8-13.2,36-2.8C304.6,554.9,290.2,535.5,268.6,557.7z"/></g></g><g><path class="st0" d="M291.2,200.4c4.7,17.2-1.8,33.9-14.4,37.4c-12.6,3.4-26.6-7.8-31.3-25c-4.7-17.2,1.8-33.9,14.4-37.4    C272.5,172,286.5,183.2,291.2,200.4z"/><path class="st14" d="M251,207.6c-3.1-8.2-3.8-16.6-2.3-23.7c-4.7,7.3-6.3,18-3.3,28.9c4.7,17.2,18.7,28.4,31.3,25    c3.8-1,7-3.2,9.5-6.3C273.3,235.5,257.7,225.1,251,207.6z"/><path class="st15" d="M247.3,210.2c-1.7-4.4-2.7-8.8-3.1-13c-0.6,4.9-0.2,10.2,1.3,15.6c4.7,17.2,18.7,28.4,31.3,25    c1.4-0.4,2.8-1,4.1-1.7C268,237.6,253.8,227,247.3,210.2z"/><path d="M265.1,191c-1.6,0.4-2.9,1.5-3.9,3c1.9,1.3,3.5,3.9,4.3,7c1.3,5.2-0.2,10-3.4,10.8c-0.7,0.2-1.4,0.1-2.2-0.1    c2.5,9.9,7.9,16.3,13.2,14.9c5.4-1.3,8.6-10,6.1-19.9C276.8,196.7,270.5,189.7,265.1,191z M274.6,218.8c-1.5,0.4-3.1-1.2-3.7-3.5    c-0.6-2.3,0.2-4.4,1.6-4.8c1.5-0.4,3.1,1.2,3.7,3.5C276.8,216.3,276,218.4,274.6,218.8z"/></g><g><path class="st0" d="M250.7,207.9c8.6,18.9,4.3,39.4-9.6,45.7c-13.9,6.3-32.1-4-40.7-22.9c-8.6-18.9-4.3-39.4,9.6-45.7    C223.9,178.7,242.1,188.9,250.7,207.9z"/><path class="st14" d="M205.2,226c-5.3-9.8-7.3-20.2-6.4-29.3c-4.1,9.2-3.9,21.9,1.6,34c8.6,18.9,26.8,29.2,40.7,22.9    c1.3-0.6,2.5-1.3,3.6-2.1C230.7,253.2,214.4,243.2,205.2,226z"/><path class="st15" d="M203.9,234.8c-1.7-2.2-3.3-4.4-4.6-6.7c0.3,0.8,0.7,1.7,1,2.5c8.6,18.9,26.8,29.2,40.7,22.9c0,0,0,0,0,0    C228.8,254.6,214.3,247.8,203.9,234.8z"/><path d="M221.7,205.3c-1.4,0.4-2.6,1.3-3.6,2.8c1.7,1.2,3.2,3.5,3.9,6.4c1.2,4.7-0.2,9.1-3.1,9.9c-0.7,0.2-1.3,0.1-2-0.1    c2.3,9,7.2,14.9,12.1,13.7c4.9-1.2,7.9-9.1,5.6-18.3C232.4,210.5,226.6,204,221.7,205.3z M230.3,230.7c-1.3,0.3-2.8-1.1-3.4-3.2    c-0.5-2.1,0.1-4.1,1.5-4.4c1.3-0.3,2.8,1.1,3.4,3.2C232.3,228.4,231.7,230.4,230.3,230.7z"/></g><g><path class="st16" d="M301.2,269.4c0,0-2.6,15.1-4.3,17.1c-1.7,2-14.1,12.2-14.1,12.2l-18.3,2.8l-11.7-5.7c0,0-8.6-11.3-10.4-16.7    c-1.8-5.4,2.5-5.5,2.5-5.5l47.3-21l6.1-3.5L301.2,269.4z"/><path class="st2" d="M301.3,277c-0.6,4.2-1.9,8.4-4.3,11.9c-0.4,0.7-0.9,1.3-1.5,2c-0.3,0.3-0.5,0.6-0.8,0.9    c-1.3,1.4-2.7,2.7-4.2,3.8c-12.9,10.1-28.9,8.4-35.9,2.7c-0.2-0.1-0.3-0.3-0.5-0.4c-1.6-1.4-3.2-3.3-4.8-5.5    c-0.6-0.8-1.2-1.7-1.8-2.6c-1.9-3-3.8-6.2-5.5-9.4c-0.3-0.6-0.6-1.1-0.9-1.7c-0.4-0.8-0.8-1.5-1.1-2.3l1.6-0.6l3.6-1.3    c0,0,18.4-7.8,29.1-10.5c1.4-0.4,2.7-0.6,3.8-0.8c5.7-0.8,14.8,6.2,20.9,11.7C300.1,275.8,300.7,276.4,301.3,277z"/><path class="st3" d="M301.6,265.5c0.3,3.7,0.3,7.6-0.3,11.5c-0.6,4.2-1.9,8.4-4.3,11.9c-0.4-0.6-0.9-1.5-1.5-2.6    c-0.9-1.6-2.1-3.5-3.3-5.5c-2.8-4.7-10.3-9.3-13-8.9c-2.7,0.4-8.9,7.4-11.9,8.2c-3,0.8-16.7,3.3-11.4,11.4c1.7,2.6,1.3,4.5,0,5.9    c-0.3,0.4-0.8,0.7-1.2,1c-0.2-0.1-0.3-0.3-0.5-0.4c-1.6-1.4-3.2-3.3-4.8-5.5c-0.6-0.8-1.2-1.7-1.8-2.6c-1.9-3-3.8-6.2-5.5-9.4    c-0.3-0.6-0.6-1.1-0.9-1.7l1.5-0.6l16.8-6.9l15-7.1l10-4.7l14.9,5.3L301.6,265.5z"/><path class="st17" d="M295.6,290.8c-0.3,0.3-0.5,0.6-0.8,0.9c-1.3,1.4-2.7,2.7-4.2,3.8c-13.2,10.4-29.6,8.3-36.4,2.3    c-1.6-1.4-3.2-3.3-4.8-5.5c0.3-0.2,0.6-0.4,0.9-0.7c0.4-0.3,0.9-0.6,1.4-0.9c1.7-1,4-2,6.7-2.5c1.5-0.2,3.2-0.3,5-0.2    c0,0,0.3-0.4,0.8-1c1.8-2.1,6.5-6.5,14.5-3.9c5.5,1.8,10.8,4.3,14.5,6.3C294.2,290,295,290.5,295.6,290.8z"/><path class="st18" d="M290.7,295.6c-13.2,10.4-29.6,8.3-36.4,2.3c-1.6-1.4-3.2-3.3-4.8-5.5c-0.6-0.8-1.2-1.7-1.8-2.6l1.1-0.4    c0.5,0.8,1,1.6,1.5,2.3c0.4-0.3,0.9-0.6,1.4-0.9c5.2,5.4,19.2,7.2,24.7,6.8c2.4-0.2,5.5-0.6,8.3-1    C287.1,296.2,289.2,295.9,290.7,295.6z"/><path class="st18" d="M272,294.8l-13.5-6.4c1.5-0.2,3.2-0.3,5-0.2c0,0,0.3-0.4,0.8-1L272,294.8z"/><path class="st19" d="M234.7,264c0,0,0.7,1.7,1.9,4.5c0.9,2.2,2.2,4.9,3.7,7.9c0.4,0.8,0.7,1.5,1.1,2.3c0.3,0.5,0.6,1.1,0.9,1.7    c1.7,3.2,3.5,6.5,5.5,9.4c0.6,0.9,1.2,1.8,1.8,2.6c1.6,2.2,3.2,4,4.8,5.5c0.2,0.1,0.3,0.3,0.5,0.4c7,5.7,23,7.4,35.9-2.7    c1.4-1.1,2.8-2.4,4.2-3.8c0.3-0.3,0.5-0.6,0.8-0.9c0.5-0.6,1-1.3,1.5-2c2.3-3.5,3.7-7.7,4.3-11.9c0.6-3.8,0.6-7.8,0.3-11.5    c-0.5-6.8-2.1-12.7-3-15.7c-0.2-0.5-0.3-0.9-0.4-1.3c-0.2-0.5-0.3-0.8-0.3-0.8C269.9,261.8,234.7,264,234.7,264z M296.5,249.6    c0.2,0.6,0.4,1.3,0.5,1.9c1.4,4.9,2.2,9.3,2.5,13.2c0.3,3.9,0.2,7.3-0.2,10.4c-0.6,4.6-2,8.2-3.8,11.2c-0.7,1.2-1.5,2.3-2.3,3.3    c-2.8,3.4-5.9,5.6-8.4,7c-1.2,0.7-2.2,1.2-2.9,1.5c-4.8,2.5-17.9,4.2-26-0.8c-1.1-0.7-2.1-1.5-3-2.4c-0.9-0.9-1.7-2-2.6-3.2    c-0.5-0.7-1-1.5-1.5-2.3c-1.8-2.9-3.5-6.2-5.1-9.4c-0.3-0.7-0.6-1.3-0.9-2c-0.3-0.8-0.7-1.5-1-2.3c-1.3-2.9-2.3-5.5-3.1-7.3    c-0.7-1.7-1.1-2.8-1.1-2.8C257.9,267.1,296.5,249.6,296.5,249.6C296.5,249.6,296.5,249.6,296.5,249.6z"/><path class="st20" d="M297,251.5c-0.2-0.6-0.4-1.3-0.5-1.9c0,0,0,0,0,0c0,0-38.5,17.5-58.8,16.2c0,0,0.4,1.1,1.1,2.8    c0.7,1.8,1.8,4.4,3.1,7.3c0.3,0.7,0.7,1.5,1,2.3c0.3,0.6,0.6,1.3,0.9,2C255,277.7,278.9,270.7,297,251.5z"/><path class="st14" d="M296.5,249.6C296.5,249.6,296.5,249.6,296.5,249.6c0,0-38.5,17.5-58.8,16.1c0,0,0.4,1.1,1.1,2.8    C248.5,268.7,269.7,266.5,296.5,249.6z"/></g><g><g><g><path class="st2" d="M211,402.7c-0.1,0-0.2,0-0.2,0c-27.7-1.3-46.2-7.3-55.1-17.9c-4.6-5.6-6.5-12.2-5.4-19.8      c3.4-24.3,46.4-33.3,51.3-34.2c2.7-0.5,5.3,1.3,5.9,4c0.5,2.7-1.3,5.3-4,5.9l0,0c-11.3,2.2-41.2,11.1-43.2,25.8      c-0.7,4.7,0.4,8.6,3.2,12c6.8,8.1,23.7,13.2,47.8,14.3c2.8,0.1,4.9,2.5,4.8,5.2C215.9,400.6,213.7,402.7,211,402.7z"/></g><path class="st3" d="M214.2,400.2c-0.1,0-0.2,0-0.2,0c-27.7-1.2-46.2-6.9-55.1-17c-4.6-5.3-6.5-11.6-5.4-18.8     c3.4-23.1,46.4-31.5,51.3-32.4c0.3-0.1,0.7-0.1,1-0.1c-1.1-1-2.6-1.5-4.2-1.2c-4.9,0.9-47.9,9.9-51.3,34.2     c-1.1,7.5,0.8,14.2,5.4,19.8c8.8,10.6,27.4,16.6,55.1,17.9c0.1,0,0.2,0,0.2,0c1.9,0,3.5-1.1,4.4-2.6     C215,400.1,214.6,400.2,214.2,400.2z"/></g><g><path class="st4" d="M348,386.4c-2,1.3-4.2,2.2-5.7,2.6c-3.9,1.1-37.1,0.7-37.1,0.7c0,0.1,0,0.2,0,0.2c0,1.7-0.1,3.2-0.3,4.6     c-1.1,7.1-4.9,11.1-7.5,13c-1.5,1.1-2.5,1.5-2.5,1.5c-0.1,2-0.1,4.2-0.4,6.4c-0.9,7.1-5.1,14.3-26.8,15.2     c-21.8,1-35.8-7.7-41.1-11.7c-1.6-1.2-2.4-2-2.4-2H224c-10,0-15.3-6.5-17.9-14.3c-3-9.2-2.3-20.3-0.8-25.2c1-3.5,3.4-5.3,6-6.3     c2.9-1.1,6-1,7.7-0.9c0.7,0.1,1.2,0.1,1.2,0.1c0.2-0.4,0.3-0.9,0.6-1.3c0.1-0.2,0.2-0.4,0.3-0.6c2.5-4.4,8.2-9.8,14.1-14.8     c6.8-5.8,6.5-16.8,4.9-26.9c-1.2-7.3,3.6-9.7,8.1-9.9c1.7-0.1,3.3,0.1,4.6,0.5c0.2,0,0.4,0.1,0.5,0.2c1.5,0.5,3.4,1.7,5.5,3.5     c0.2,0.2,0.4,0.3,0.6,0.5c0.2,0.2,0.4,0.3,0.6,0.5c0.1,0.1,0.3,0.2,0.4,0.4c1.7,1.7,3.5,3.8,4.9,6.1c0.2,0.4,0.4,0.8,0.7,1.1     c0.2,0.4,0.4,0.8,0.6,1.2c0.2,0.4,0.4,0.8,0.5,1.2c0.2,0.4,0.3,0.8,0.5,1.2c0.2,0.5,0.4,1,0.5,1.5c0.1,0.2,0.1,0.4,0.2,0.6     c0,0.2,0.1,0.3,0.1,0.5c0,0.2,0.1,0.3,0.1,0.5c0.1,0.3,0.1,0.7,0.2,1c0,0.1,0,0.2,0,0.2c0,0.3,0.1,0.5,0.1,0.8     c1.2,11.2-4.2,21-4.2,21h0c0.2,0,2.4,0.1,5.9,0.2h0c14.9,0.5,53.1,2,59.1,3.4c7.5,1.8,23.1,4.5,24.1,12.8     C354,381,351.1,384.3,348,386.4z"/><path class="st5" d="M348,386.4c-2,1.3-4.2,2.2-5.7,2.6c-3.9,1.1-37.1,0.7-37.1,0.7c0,0.1,0,0.2,0,0.2c0,1.7-0.1,3.2-0.3,4.6     c-1.1,7.1-4.9,11.1-7.5,13c-1.5,1.1-2.5,1.5-2.5,1.5c-0.1,2-0.1,4.2-0.4,6.4c-0.9,7.1-5.1,14.3-26.8,15.2     c-28.2,1.3-43.5-13.6-43.5-13.6c-10.1,0.1-15.4-6.4-18-14.3c6.9,0.4,5.4-6.7,5.2-11.1c-0.2-4.8,2.7-13,1.8-17.5     c-0.2-1.3-1-2.2-1.9-2.9c4.2-1.5,8.9-0.7,8.9-0.7c0.2-0.4,0.3-0.9,0.6-1.3c-1.8,11.3-0.9,26.9,6.5,39.5     c8.7,14.8,23.8,20.8,36.2,20.2c6.6-0.4,10.6-5.9,12.9-10.9c1.9-4.3,2.6-8.2,2.6-8.2c1.5-1.6,2.5-3.4,3.2-5.4     c1.6-4.3,1.6-9.2,1.2-12.9c-0.4-3.5-1.1-6.1-1.1-6.1c0.5-0.2,0.9-0.6,1.3-0.9c1.9-2,2.1-5.4,2.1-5.4s19.3,3.2,31.3,5     C326.3,385.6,341.9,386.2,348,386.4z"/><path class="st5" d="M264.2,359.6c-1.7,0.5-4,1-6.9,0.9c-1.3-0.1-2.7-0.2-4.2-0.6c0,0,6.2-30.6-5.1-42.7c1.7-0.1,3.3,0.1,4.6,0.5     c0.2,0,0.4,0.1,0.5,0.2c1.5,0.5,3.4,1.7,5.5,3.5c0.2,0.2,0.4,0.3,0.6,0.5c0.2,0.2,0.4,0.3,0.6,0.5c0.1,0.1,0.3,0.2,0.4,0.4     c1.7,1.7,3.5,3.8,4.9,6.1c0.2,0.4,0.4,0.8,0.7,1.1c0.2,0.4,0.4,0.8,0.6,1.2c0.2,0.4,0.4,0.8,0.5,1.2c0.2,0.4,0.3,0.8,0.5,1.2     c0.2,0.5,0.4,1,0.5,1.5c0.1,0.2,0.1,0.4,0.2,0.6c0,0.2,0.1,0.3,0.1,0.5c0,0.2,0.1,0.3,0.1,0.5c0.1,0.3,0.1,0.7,0.2,1     c0,0.1,0,0.2,0,0.2c0,0.3,0.1,0.5,0.1,0.8C269.7,349.8,264.2,359.6,264.2,359.6z"/><path class="st7" d="M264.2,359.6c0,0,5.5-9.8,4.2-21c0-0.3-0.1-0.5-0.1-0.8c0-0.1,0-0.2,0-0.2c-0.1-0.3-0.1-0.7-0.2-1     c0-0.2-0.1-0.3-0.1-0.5c0-0.2-0.1-0.3-0.1-0.5c0-0.2-0.1-0.4-0.2-0.6c-0.1-0.5-0.3-1-0.5-1.5c-0.1-0.4-0.3-0.8-0.5-1.2     c-0.2-0.4-0.4-0.8-0.5-1.2c-0.2-0.4-0.4-0.8-0.6-1.2c-0.2-0.4-0.4-0.8-0.7-1.1c-1.4-2.3-3.1-4.4-4.9-6.1     c-0.1-0.1-0.3-0.3-0.4-0.4c-0.2-0.2-0.4-0.3-0.6-0.5c-0.2-0.2-0.4-0.3-0.6-0.5c-2-1.7-4-2.9-5.5-3.5c5.1,4.5,15.2,17.5,4.2,42.7     L264.2,359.6z"/><path class="st7" d="M305.1,390.1v0.1c0,1.6-0.1,3.1-0.3,4.5c-4.6-0.7-15.2-2.2-21.6-3.1c-0.2-2.1-0.5-3.8-0.8-4.9     c-0.2-0.8-0.3-1.2-0.3-1.2c0.5-0.2,0.9-0.6,1.3-0.9L305.1,390.1z"/><path class="st7" d="M297.3,407.7c-1.5,1.1-2.5,1.5-2.5,1.5c-0.1,2-0.1,4.2-0.4,6.4l-18.2,2.5c1.9-4.3,2.6-8.2,2.6-8.2     c1.5-1.6,2.5-3.4,3.2-5.4L297.3,407.7z"/><path class="st6" d="M305.1,390.1v0.1c-7.5-0.1-18.1-2.4-22.7-3.5c-0.2-0.8-0.3-1.2-0.3-1.2c0.5-0.2,0.9-0.6,1.3-0.9L305.1,390.1     z"/><path class="st6" d="M278.4,411.8c2.9,0.2,11-0.2,16.4-2.5c1.1-0.5,2.1-1,2.9-1.7c0,0-0.2,0-0.4,0.1c0,0,0,0,0,0     c-2.4,0.5-13.5,2.6-18,1.9L278.4,411.8z"/><path class="st6" d="M226.5,419.2l0.1-0.2c-17.6-22.8-5.6-48.5-5.6-48.5v-1.7c-0.1,0.2-0.2,0.4-0.3,0.6c-0.2,0.4-0.4,0.9-0.6,1.3     c0,0-0.4-0.1-1.2-0.1c-1.4,1.9-4.4,7.1-4.8,19.4c-0.5,12,6.3,22.5,9.8,27.2L226.5,419.2z"/></g></g><g><path class="st21" d="M186.6,191.5c0,0,7.8-19.6,31.7-18c0,0,3.1-0.5,1.3-4c-1.8-3.4-5.4-8-5.4-8s-4.4-0.7-7.4,0.5    C203.7,163.4,179.9,169,186.6,191.5z"/><path class="st22" d="M219.7,169.6c-0.2-0.4-0.4-0.8-0.7-1.2c0.8,2.6-1.7,3-1.7,3c-21.1-1.4-29.6,13.5-31.4,17.2    c0.2,1,0.4,1.9,0.7,3c0,0,7.8-19.6,31.7-18C218.4,173.6,221.5,173,219.7,169.6z"/><path class="st23" d="M208,164c3.1-1.3,7.4-0.5,7.4-0.5s0.9,1.2,2.1,2.8c-1.7-2.5-3.4-4.6-3.4-4.6s-4.4-0.7-7.4,0.5    c-3.1,1.3-26.9,6.9-20.1,29.4c0,0,0.2-0.4,0.5-1.2C183.3,170.4,205.1,165.2,208,164z"/></g><g><path class="st21" d="M273.3,173c0,0-9.3-13.8-27.5-8.5c0,0-2.5,0.1-1.7-2.9c0.8-3,2.8-7.1,2.8-7.1s3.2-1.3,5.8-0.8    C255.4,154.3,274.6,154.6,273.3,173z"/><path class="st22" d="M244.1,161.7c0.1-0.3,0.2-0.7,0.3-1.1c-0.2,2.1,1.8,2.1,1.8,2.1c16-4.7,25.1,5.4,27.1,7.9    c0,0.8,0,1.6-0.1,2.4c0,0-9.3-13.8-27.5-8.5C245.8,164.6,243.3,164.7,244.1,161.7z"/><path class="st23" d="M252.1,155.4c-2.6-0.5-5.8,0.8-5.8,0.8s-0.5,1.1-1.2,2.5c0.9-2.2,1.8-4.1,1.8-4.1s3.2-1.3,5.8-0.8    c2.6,0.5,21.8,0.8,20.5,19.2c0,0-0.2-0.3-0.6-0.8C272.3,156.2,254.6,155.8,252.1,155.4z"/></g></g></svg>